<svg width="192" height="192" viewBox="0 0 192 192" fill="none" xmlns="http://www.w3.org/2000/svg">
<rect width="192" height="192" rx="8" fill="#FDB000"/>
<g clip-path="url(#clip0)">
<path d="M153.924 54.6995C152.212 52.6236 149.675 51.4339 146.964 51.4339H77.3368C75.9106 51.4339 74.7533 52.5913 74.7533 54.0174C74.7533 55.4436 75.9106 56.601 77.3368 56.601H146.962C148.142 56.601 149.199 57.0931 149.936 57.987C150.686 58.8964 150.985 60.0952 150.759 61.2617L140.434 112.89C140.033 114.735 138.469 116.023 136.63 116.023H79.2008L55.4903 44.6378C54.2087 40.9768 50.7391 38.5173 46.7655 38.5173C46.7643 38.5173 46.7629 38.5173 46.7615 38.5173C43.3912 38.6336 39.9733 38.6324 39.1361 38.5754C38.3029 38.3945 37.4024 38.627 36.7567 39.2729C35.7478 40.2819 35.7478 41.9172 36.7567 42.9261C37.5564 43.7258 37.8264 43.9958 46.8508 43.6832C48.543 43.6832 50.0556 44.7529 50.5996 46.3053L74.885 119.421C75.2364 120.477 76.2233 121.19 77.3368 121.19H136.629C140.921 121.19 144.561 118.228 145.492 113.945L155.83 62.2599C156.352 59.5578 155.659 56.8025 153.924 54.6995Z" fill="#383838"/>
<path d="M135.467 135.401H88.446C86.8557 135.401 85.3611 134.305 84.8225 132.768L79.7847 117.783C79.33 116.431 77.8611 115.701 76.5126 116.158C75.16 116.612 74.4327 118.078 74.8874 119.43L79.9356 134.444C81.2183 138.107 84.6376 140.566 88.4457 140.566H135.466C136.893 140.566 138.05 139.41 138.05 137.984C138.05 136.558 136.893 135.401 135.467 135.401Z" fill="#383838"/>
<path d="M90.2543 135.4C85.268 135.4 81.2119 139.457 81.2119 144.442C81.2119 149.427 85.268 153.484 90.2543 153.484C95.2406 153.484 99.2967 149.427 99.2967 144.442C99.2967 139.457 95.2406 135.4 90.2543 135.4ZM90.2543 148.317C88.1178 148.317 86.3789 146.579 86.3789 144.442C86.3789 142.305 88.1178 140.567 90.2543 140.567C92.3909 140.567 94.1297 142.305 94.1297 144.442C94.1297 146.579 92.3909 148.317 90.2543 148.317Z" fill="#383838"/>
<path d="M135.466 135.4C130.481 135.4 126.424 139.457 126.424 144.442C126.424 149.427 130.481 153.484 135.466 153.484C140.451 153.484 144.509 149.427 144.509 144.442C144.509 139.457 140.451 135.4 135.466 135.4ZM135.466 148.317C133.33 148.317 131.591 146.579 131.591 144.442C131.591 142.305 133.33 140.567 135.466 140.567C137.603 140.567 139.342 142.305 139.342 144.442C139.342 146.579 137.603 148.317 135.466 148.317Z" fill="#383838"/>
</g>
<defs>
<clipPath id="clip0">
<rect width="120" height="120" fill="white" transform="translate(36 36)"/>
</clipPath>
</defs>
</svg>
